#!OML:ASF F:\VICON\USERDATA\INSTALL\rory3\rory3.ASF
:FULLY-SPECIFIED
:DEGREES
1
root 0.6635756018274612 18.040088951465407 -17.994282732318595 -1.7935243934435006 -3.1659367967114385 -5.658900596606582
lfemur -25.683789601223836 2.0402185494230443 -14.117708456164712
ltibia 67.5192789238318
lfoot -4.512922359282982 -3.446739013560046
ltoes -6.189815594803305
rfemur -9.513951393928426 7.674706897624377 33.22148854338156
rtibia 30.755504130212728
rfoot -15.484492887231443 -3.824684353946193
rtoes 11.01078928502603
lowerback 13.219671014203811 0.13723028751485902 3.421805035280941
upperback -0.186173988168297 0.9053430898335281 2.491915660231923
thorax -7.624226287991659 0.35904755486123946 0.5382682042763418
lowerneck -16.162201995038558 -3.1491739999810737 -2.2760951775917384
upperneck 22.006491949362758 -3.7424800463915076 -0.23558692430313555
head 9.67770277865666 -1.9582944861568814 -0.18943438868814957
lclavicle -3.616362952482777e-16 5.803562889112567e-16
lhumerus -31.840398807606686 3.7618424576194074 80.82959395420255
lradius 26.825295727926935
lwrist 6.433676586116578
lhand -26.977507079996595 21.868896972783663
lfingers 7.12502
lthumb -0.39837607994876434 51.8482969400254
rclavicle -3.616362952482777e-16 5.803562889112567e-16
rhumerus -28.2726999169723 -19.505297968882797 -77.82890168793134
rradius 23.219507231088407
rwrist 5.002667823894051
rhand -14.591727007581511 14.635732665167042
rfingers 7.12502
rthumb 11.558472999252032 -15.025567801119283
2
root 0.6638465954318671 18.003291589921428 -17.656782904573944 -1.6613952408965442 -3.07124711251556 -5.867880065382945
lfemur -27.50488845553405 1.6902496046418525 -13.969808671319832
ltibia 65.09438033447654
lfoot -5.727210957959503 -2.0906609266818537
ltoes -5.632346427731424
rfemur -8.514022079486589 7.451617603338323 33.56318802907116
rtibia 31.07090396145285
rfoot -16.67909170660402 -4.219903638708443
rtoes 11.547788539105433
lowerback 13.112371982699349 0.1391242750768671 3.723324326963499
upperback -0.1374713756129345 0.9505319024211881 2.549474926899064
thorax -7.507338013314387 0.3724754326208248 0.42082870077289913
lowerneck -16.185701590314967 -3.031617573145069 -2.325584418204486
upperneck 21.912693021839264 -3.569943073707151 -0.20494621456680984
head 9.648893751800722 -1.87836812028552 -0.14737334993939954
lclavicle -3.616362809890216e-16 5.803562983611691e-16
lhumerus -32.223098231498874 4.374071428659297 80.9206934751976
lradius 26.478096436393713
lwrist 5.486449265243135
lhand -26.51810915978609 22.163096391335934
lfingers 7.12502
lthumb 0.04537913984212261 52.14289635865764
rclavicle -3.616362809890216e-16 5.803562983611691e-16
rhumerus -27.109701729572024 -18.152899737870992 -78.59629998680795
rradius 24.565104370284786
rwrist 4.946907940112599
rhand -17.090506974165965 28.443075242250107
rfingers 7.12502
rthumb 9.148033024624558 -1.3385050164364234
3
root 0.6758173129165157 17.952895203459025 -17.302783085250624 -1.593375677162009 -3.65922515152172 -6.055309588939025
lfemur -28.712387695871982 1.9316288768402845 -13.857108835268306
ltibia 62.201682017256026
lfoot -6.99762949186049 -0.5967110343098305
ltoes -7.335463883062556
rfemur -7.309562905271774 7.56877723271908 33.8540875912225
rtibia 31.14760392041327
rfoot -17.997990403130476 -4.088653876234266
rtoes 10.455990055671737
lowerback 12.92537367057134 0.43833631012370317 4.257473072161959
upperback -0.09771870809068961 1.4060570132140575 2.422546544027969
thorax -7.334700561519669 0.5743555948088347 -0.10037309575305775
lowerneck -15.708409810509524 -3.1436941665423084 -2.1906464887584525
upperneck 21.625496305583955 -3.756289804086946 -0.27285357127103893
head 9.456320256767189 -1.962684286559425 -0.20594301140469087
lclavicle -3.6163624850246465e-16 5.803563282396062e-16
lhumerus -32.89579721883169 4.487581237885791 80.98199315288142
lradius 26.012597386253415
lwrist 5.6210988844017455
lhand -26.659308520547352 21.377397944168987
lfingers 7.12502
lthumb -0.09100492082485334 51.357197909168995
rclavicle -3.6163624850246465e-16 5.803563282396062e-16
rhumerus -26.38420286030384 -16.600501768466433 -79.38939822871446
rradius 25.393702608645455
rwrist 2.4100332276396057
rhand -14.75862566950841 14.924131465754456
rfingers 7.12502
rthumb 11.39747433679132 -14.74606896949373
4
root 0.6806951977958171 17.95929474459711 -16.948783265927155 -1.3109174887989286 -4.223613269203772 -6.3977587184369025
lfemur -29.635687115005787 1.9492188238034471 -13.479709384284817
ltibia 57.99058446699258
lfoot -7.157549307308488 0.8965978589664951
ltoes -5.757106241324781
rfemur -5.877463887128358 7.67549689512531 34.250486994580264
rtibia 30.448804294317554
rfoot -18.785889624446128 -3.9666940969477764
rtoes 9.845180904118209
lowerback 12.58507674213733 0.7272564127586123 4.816141759759118
upperback 0.054552154002576 1.8381252212901413 2.372967175693069
thorax -6.9473462790405005 0.7730437860548874 -0.5411972320899885
lowerneck -15.980905117438043 -3.224281717058756 -1.984059658728392
upperneck 21.603096561697747 -3.8961473501610975 -0.34997784066217885
head 9.4937989907679 -2.0180217704493426 -0.28908811122976624
lclavicle -3.616362705677059e-16 5.803563043368509e-16
lhumerus -33.080596940637996 4.717970850674906 81.07429266756682
lradius 25.576698275713873
lwrist 5.4988292302277895
lhand -26.818707798913817 21.997296719017896
lfingers 7.12502
lthumb -0.24495179916191412 51.97689668624436
rclavicle -3.616362705677059e-16 5.803563043368509e-16
rhumerus -25.289804565986675 -15.356403395794304 -80.05849674549626
rradius 26.50880023789478
rwrist 1.0062961534039987
rhand -16.33791300792158 23.71569490280152
rfingers 7.12502
rthumb 9.874166992073087 -6.032745393347386
5
root 0.6885560122763805 17.960294672899934 -16.591483448288145 -1.0023794677072926 -4.568952117447568 -6.643038094939245
lfemur -30.377986648010264 1.3803405390729904 -13.152009861001046
ltibia 52.75668751172576
lfoot -6.698829836683765 3.2234915762417224
ltoes -7.759963248807824
rfemur -4.238035011131664 7.60832710760819 34.4938866282263
rtibia 29.279304920077507
rfoot -19.328889087797283 -3.7370745124958065
rtoes 8.80713234602298
lowerback 12.604276568837106 0.9402720138654194 5.237610769660448
upperback -0.05923370445511683 2.1890437659196187 2.3615973205505156
thorax -7.050004763755782 0.9252044008637939 -0.8537259108189623
lowerneck -16.379598250914743 -3.2668504231697524 -1.9736398186155446
upperneck 21.683595641288804 -3.969086070385956 -0.2656866391643743
head 9.598415456913962 -2.039470795195255 -0.2794223321287866
lclavicle -3.616363419941201e-16 5.803562657033263e-16
lhumerus -33.6464960887451 5.129490159043221 81.1312923678601
lradius 25.169399106815604
lwrist 5.238779965748056
lhand -26.57250891350714 20.887298912787386
lfingers 7.12502
lthumb -0.007211223627924257 50.867098876339185
rclavicle -3.616363419941201e-16 5.803562657033263e-16
rhumerus -24.549005720564388 -13.632905650194743 -80.77729515210626
rradius 27.616697882451607
rwrist 0.4356983426828065
rhand -18.456596021849272 22.725299021727384
rfingers 7.12502
rthumb 7.829663977326796 -7.109690891448098
6
root 0.6969298146501552 17.94519575552727 -16.234583630445023 -0.7418181389016241 -4.666721791371225 -6.720207898774415
lfemur -30.47998658384003 0.28397184482023197 -12.824810336989907
ltibia 47.13129078420745
lfoot -6.345370244586158 2.774782209269931
ltoes -7.45958369761215
rfemur -2.6421061053110826 7.540047323602423 34.57938649953582
rtibia 28.136405531604677
rfoot -19.723488697812734 -3.7873644214849533
rtoes 7.803533740074925
lowerback 12.379478597893925 1.0677751765403332 5.553730027045336
upperback -0.07954782574450692 2.380432972167874 2.2527187077166344
thorax -6.918056711367503 1.0086936408211806 -1.1744325549741246
lowerneck -16.475796594131346 -3.226381653230546 -1.688514193723386
upperneck 21.7509948706607 -3.9505763951547777 -0.4162582127790604
head 9.629624402702706 -2.023901503106963 -0.3785910657542043
lclavicle -3.6163631387899623e-16 5.803562504167764e-16
lhumerus -34.23049520960487 5.520779501411607 81.05129278850113
lradius 24.827699804059556
lwrist 5.096140369188205
lhand -26.628208661342846 17.729805153172208
lfingers 7.12502
lthumb -0.06099126152108436 47.709505107591134
rclavicle -3.6163631387899623e-16 5.803562504167764e-16
rhumerus -23.828406843659277 -12.105507648089276 -81.35219387770461
rradius 28.767995434738165
rwrist -0.4614377874449822
rhand -18.9324922064569 22.265300934798763
rfingers 7.12502
rthumb 7.370317793467647 -7.586298899108416
7
root 0.7063225929755509 17.937296321934948 -15.877183812856911 -0.5188935687004377 -4.874211099363651 -6.808997673071731
lfemur -30.424586618693297 -1.1304818903493694 -12.282011126619356
ltibia 41.322994163088154
lfoot -5.510361208210264 3.5115511698543025
ltoes -6.544705064554383
rfemur -0.9968762332915766 7.187368439256172 34.574086507513115
rtibia 27.047206114398794
rfoot -20.049888375230445 -3.376285165424865
rtoes 9.076551971784749
lowerback 12.279679498694051 1.187024393419676 5.788809474805806
upperback -0.12832863607216383 2.5670621981572705 2.2491287534543827
thorax -6.893287076978282 1.0914028878792148 -1.339941855253878
lowerneck -16.553095262849048 -3.250650915558803 -1.7390234186849924
upperneck 21.777594566525572 -3.968286084422426 -0.41831619328352576
head 9.654703555550567 -2.036010952508968 -0.37505214663167524
lclavicle -3.6163628546454493e-16 5.803562786275224e-16
lhumerus -34.82689431179798 6.314668167139936 80.93449340263702
lradius 24.349500779833793
lwrist 4.765521304307258
lhand -26.514809174725805 19.49140167160074
lfingers 7.12502
lthumb 0.048526625087528696 49.471201631027746
rclavicle -3.6163628546454493e-16 5.803562786275224e-16
rhumerus -22.967708185107767 -10.969009134672444 -81.62139328095923
rradius 29.487093905900565
rwrist -1.1832392830171576
rhand -18.825693062695407 22.17490131075888
rfingers 7.12502
rthumb 7.473436936777879 -7.673088536306207
